<?xml version="1.0" encoding="UTF-8"?>
<svg width="256" height="256" viewBox="0 0 256 256" fill="none" xmlns="http://www.w3.org/2000/svg">
  <!-- Bisman "B" glyph with dot -->
  <defs>
    <linearGradient id="g" x1="0" y1="0" x2="0" y2="1">
      <stop offset="0%" stop-color="#F2C04B"/>
      <stop offset="100%" stop-color="#E1A90F"/>
    </linearGradient>
  </defs>
  <!-- Left vertical + top bowl merged into a stylized B -->
  <path fill="url(#g)" d="M96 56c0-8.837 7.163-16 16-16h24c37.555 0 68 30.445 68 68s-30.445 68-68 68h-40c-8.837 0-16-7.163-16-16V56z"/>
  <!-- Lower arc cut to create dot location visual separation -->
  <path fill="#fff" d="M80 168c0-30.928 25.072-56 56-56h16c8.837 0 16 7.163 16 16s-7.163 16-16 16h-16c-13.255 0-24 10.745-24 24 0 8.837-7.163 16-16 16s-16-7.163-16-16z" opacity=".92"/>
  <!-- Dot -->
  <circle cx="72" cy="184" r="18" fill="url(#g)"/>
</svg>
